<svg xmlns="http://www.w3.org/2000/svg"  viewBox="0 0 100 100" width="100px" height="100px" baseProfile="basic"><circle cx="50" cy="50" r="36.5" fill="#fde9f1"/><path fill="none" stroke="#231f20" stroke-linecap="round" stroke-linejoin="round" stroke-miterlimit="10" d="M16.652,71.478	c0,0,24.913-27.522,35.739-39.13s19.797-11.641,21.783-8.609c3.587,5.478-7.424,9.544-10.033,13.457"/><path fill="none" stroke="#231f20" stroke-linecap="round" stroke-linejoin="round" stroke-miterlimit="10" d="M44.598,49.37	c3.522-7.435,15.254-19.303,18.88-13.793c2.543,3.864-4.94,8.609-7.63,17.902C53.337,62.152,50,62.772,50,62.772"/><path fill="none" stroke="#231f20" stroke-linecap="round" stroke-linejoin="round" stroke-miterlimit="10" d="M74.433,24.184	c0,0,2.47-1.113,4.061,1.218c4.207,6.163-10.19,13.337-12.929,17.38"/><path fill="none" stroke="#231f20" stroke-linecap="round" stroke-linejoin="round" stroke-miterlimit="10" d="M78.104,31.27	c1.713,0.936,3.247,4.164-2.055,8.855C69.69,45.75,63.609,53.283,57.543,64.63S41.37,86.87,41.37,86.87"/><path fill="none" stroke="#231f20" stroke-linecap="round" stroke-linejoin="round" stroke-miterlimit="10" d="M49.865,34.777	c-0.804-0.868-1.559-1.682-2.257-2.429c-10.826-11.609-19.797-11.641-21.783-8.609c-3.587,5.478,7.424,9.544,10.033,13.457"/><path fill="none" stroke="#231f20" stroke-linecap="round" stroke-linejoin="round" stroke-miterlimit="10" d="M83.348,71.478	c0,0-8.534-9.427-17.783-19.574"/><path fill="none" stroke="#231f20" stroke-linecap="round" stroke-linejoin="round" stroke-miterlimit="10" d="M46.84,38.348	c-4.093-3.681-8.372-5.728-10.318-2.771c-1.68,2.552,1.014,5.488,3.813,9.866"/><path fill="none" stroke="#231f20" stroke-linecap="round" stroke-linejoin="round" stroke-miterlimit="10" d="M25.567,24.184	c0,0-2.47-1.113-4.061,1.218c-4.207,6.163,10.19,13.337,12.929,17.38"/><path fill="none" stroke="#231f20" stroke-linecap="round" stroke-linejoin="round" stroke-miterlimit="10" d="M50.048,76.397	c4.52,6.096,8.582,10.473,8.582,10.473"/><path fill="none" stroke="#231f20" stroke-linecap="round" stroke-linejoin="round" stroke-miterlimit="10" d="M21.896,31.27	c-1.713,0.936-3.247,4.164,2.055,8.855c3.577,3.164,7.066,6.932,10.514,11.642"/></svg>